<svg xmlns="http://www.w3.org/2000/svg" xmlns:xlink="http://www.w3.org/1999/xlink" width="1920" zoomAndPan="magnify" viewBox="0 0 1440 809.999993" height="1080" preserveAspectRatio="xMidYMid meet" version="1.0"><defs><clipPath id="9448ef0821"><path d="M 565 243 L 873 243 L 873 417 L 565 417 Z M 565 243 " clip-rule="nonzero"/></clipPath><clipPath id="53cd63460a"><path d="M 460.234375 412 L 979.984375 412 L 979.984375 567 L 460.234375 567 Z M 460.234375 412 " clip-rule="nonzero"/></clipPath></defs><g clip-path="url(#9448ef0821)"><path fill="#555588" d="M 587.285156 352.074219 C 587.285156 346.570312 585.34375 342.664062 581.675781 340.414062 C 577.980469 338.082031 572.601562 336.929688 565.511719 336.929688 L 565.511719 316.609375 C 568.65625 316.640625 571.773438 316.382812 574.871094 315.84375 C 577.65625 315.28125 579.976562 314.398438 581.84375 313.207031 C 583.683594 312.015625 585.070312 310.425781 586.011719 308.445312 C 586.980469 306.515625 587.398438 304.199219 587.285156 301.476562 L 587.285156 274.4375 C 587.285156 270.242188 587.824219 266.664062 588.90625 263.722656 C 589.984375 260.71875 591.914062 258.28125 594.695312 256.402344 C 597.53125 254.472656 601.355469 253.0625 606.179688 252.152344 C 611 251.246094 617.195312 250.859375 624.550781 250.859375 L 624.550781 269.988281 C 622.28125 270.050781 620.207031 270.246094 618.34375 270.582031 C 616.527344 270.925781 614.972656 271.554688 613.664062 272.527344 C 612.414062 273.371094 611.460938 274.566406 610.773438 276.089844 C 610.085938 277.613281 609.75 279.605469 609.75 282.050781 L 609.75 307.476562 C 609.40625 318.074219 602.777344 324.371094 589.839844 326.351562 L 589.839844 327.375 C 596.359375 328.347656 601.351562 330.382812 604.746094 333.496094 C 608.140625 336.613281 609.851562 340.835938 609.671875 346.167969 L 609.671875 371.316406 C 609.671875 373.75 610.007812 375.738281 610.695312 377.273438 C 611.3125 378.742188 612.277344 379.929688 613.585938 380.835938 C 615.011719 381.796875 616.570312 382.421875 618.265625 382.710938 C 620.320312 383.0625 622.386719 383.261719 624.472656 383.304688 L 624.472656 402.527344 C 617.046875 402.527344 610.863281 402.070312 606.101562 401.230469 C 601.335938 400.386719 597.449219 398.898438 594.617188 396.980469 C 591.828125 395.035156 589.910156 392.671875 588.828125 389.660156 C 587.746094 386.648438 587.210938 383.054688 587.210938 378.863281 L 587.210938 352.074219 M 635.703125 362.875 C 635.703125 360.28125 636.074219 357.96875 636.804688 356.15625 C 637.515625 354.390625 638.59375 352.886719 640.039062 351.648438 C 641.335938 350.515625 642.988281 349.691406 644.804688 349.1875 C 646.617188 348.679688 648.574219 348.421875 650.675781 348.421875 C 652.582031 348.414062 654.453125 348.667969 656.285156 349.1875 C 658.101562 349.703125 659.6875 350.519531 661.050781 351.648438 C 662.496094 352.886719 663.578125 354.390625 664.289062 356.15625 C 665.085938 357.96875 665.484375 360.210938 665.484375 362.875 C 665.484375 365.425781 665.09375 367.601562 664.289062 369.351562 C 663.488281 371.101562 662.347656 372.667969 661.050781 373.859375 C 659.65625 375.074219 658.070312 375.925781 656.285156 376.414062 C 654.535156 376.976562 652.65625 377.253906 650.675781 377.253906 C 648.675781 377.269531 646.71875 376.988281 644.804688 376.414062 C 643.019531 375.925781 641.433594 375.074219 640.039062 373.859375 C 638.644531 372.582031 637.566406 371.078125 636.800781 369.351562 C 636.011719 367.265625 635.644531 365.105469 635.699219 362.875 M 683.6875 416.875 C 680.964844 416.875 678.160156 416.679688 675.261719 416.277344 C 672.363281 415.875 669.960938 415.371094 668.03125 414.75 L 668.03125 394.34375 C 669.636719 394.878906 671.28125 395.273438 672.953125 395.535156 C 674.484375 395.820312 676.214844 395.964844 678.140625 395.964844 C 679.511719 395.972656 680.84375 395.746094 682.136719 395.28125 C 683.488281 394.871094 684.59375 394.105469 685.457031 392.988281 C 686.429688 391.914062 687.1875 390.4375 687.75 388.566406 C 688.320312 386.75 688.59375 384.398438 688.59375 381.441406 L 688.59375 279.976562 L 714.542969 279.976562 L 714.542969 385.332031 C 714.570312 389.496094 714.003906 393.578125 712.835938 397.578125 C 711.761719 401.429688 709.972656 404.703125 707.476562 407.617188 C 705.039062 410.507812 701.863281 412.773438 697.949219 414.417969 C 694.035156 416.0625 689.265625 416.878906 683.660156 416.878906 M 687.550781 255.40625 C 687.550781 252.96875 687.917969 250.957031 688.652344 249.367188 C 689.3125 247.8125 690.304688 246.507812 691.632812 245.457031 C 692.929688 244.4375 694.4375 243.726562 696.144531 243.332031 C 697.890625 242.941406 699.746094 242.734375 701.671875 242.734375 C 703.59375 242.734375 705.417969 242.929688 707.113281 243.332031 C 708.8125 243.734375 710.355469 244.433594 711.539062 245.457031 C 712.910156 246.488281 713.933594 247.792969 714.605469 249.367188 C 715.402344 250.957031 715.796875 252.96875 715.796875 255.40625 C 715.796875 257.789062 715.410156 259.796875 714.605469 261.441406 C 713.867188 263.089844 712.855469 264.421875 711.539062 265.441406 C 710.289062 266.410156 708.820312 267.113281 707.113281 267.566406 C 705.324219 267.972656 703.507812 268.171875 701.671875 268.160156 C 699.804688 268.167969 697.964844 267.96875 696.144531 267.566406 C 694.503906 267.140625 693 266.433594 691.632812 265.441406 C 690.320312 264.347656 689.324219 263.015625 688.652344 261.441406 C 687.914062 259.796875 687.550781 257.789062 687.550781 255.40625 M 804.734375 346.746094 C 804.734375 351.730469 803.824219 356.097656 802.011719 359.828125 C 800.203125 363.585938 797.621094 366.703125 794.265625 369.183594 C 790.921875 371.675781 786.867188 373.550781 782.101562 374.792969 C 777.339844 376.039062 772.003906 376.738281 766.109375 376.738281 C 762.996094 376.738281 760.09375 376.625 757.425781 376.398438 C 754.832031 376.230469 752.238281 375.921875 749.855469 375.46875 C 747.527344 375.027344 745.230469 374.460938 742.964844 373.769531 C 740.671875 373.058594 738.433594 372.207031 736.246094 371.21875 L 736.246094 349.789062 C 738.628906 350.980469 741.125 352.054688 743.730469 353.027344 L 751.636719 355.582031 L 759.207031 357.199219 C 761.703125 357.589844 764 357.796875 766.09375 357.796875 C 768.429688 357.796875 770.40625 357.601562 772.058594 357.199219 C 773.703125 356.746094 775.039062 356.148438 776.054688 355.410156 C 777.0625 354.707031 777.828125 353.800781 778.351562 352.691406 C 778.863281 351.617188 779.117188 350.480469 779.113281 349.289062 C 779.140625 348.199219 778.941406 347.148438 778.519531 346.140625 C 778.175781 345.171875 777.351562 344.183594 776.054688 343.160156 C 774.757812 342.085938 772.816406 340.894531 770.269531 339.597656 L 760.144531 334.675781 L 749.269531 329.207031 C 746.265625 327.265625 743.761719 325.269531 741.785156 323.003906 C 739.855469 320.734375 738.417969 318.15625 737.445312 315.261719 C 736.472656 312.3125 736 308.828125 736 304.800781 C 736 300.375 736.839844 296.519531 738.550781 293.238281 C 740.257812 289.894531 742.660156 287.117188 745.785156 284.90625 C 748.910156 282.699219 752.652344 281.050781 757.015625 279.984375 C 761.441406 278.847656 766.347656 278.28125 771.726562 278.28125 C 777.195312 278.253906 782.585938 278.90625 787.890625 280.234375 C 793.332031 281.660156 798.578125 283.613281 803.625 286.105469 L 795.800781 304.398438 C 791.792969 302.480469 787.679688 300.808594 783.46875 299.382812 C 779.664062 298.09375 775.753906 297.441406 771.734375 297.429688 C 768.214844 297.429688 765.667969 298.050781 764.085938 299.371094 C 763.320312 299.992188 762.734375 300.753906 762.332031 301.652344 C 761.929688 302.550781 761.75 303.492188 761.792969 304.476562 C 761.792969 305.609375 761.988281 306.632812 762.386719 307.539062 C 762.777344 308.382812 763.582031 309.289062 764.773438 310.261719 C 765.964844 311.167969 767.636719 312.191406 769.789062 313.324219 L 778.214844 317.320312 L 789.101562 322.59375 C 792.34375 324.296875 795.117188 326.25 797.4375 328.464844 C 799.765625 330.667969 801.550781 333.25 802.796875 336.203125 C 804.046875 339.152344 804.738281 342.722656 804.738281 346.917969 M 850.867188 378.855469 C 850.867188 383.054688 850.332031 386.648438 849.25 389.652344 C 848.167969 392.660156 846.214844 395.09375 843.378906 396.972656 C 840.589844 398.90625 836.800781 400.316406 831.972656 401.222656 C 827.144531 402.128906 820.953125 402.519531 813.597656 402.519531 L 813.597656 383.363281 C 815.867188 383.300781 817.910156 383.105469 819.722656 382.769531 C 821.539062 382.429688 823.066406 381.796875 824.257812 380.824219 C 825.554688 379.980469 826.554688 378.785156 827.242188 377.261719 C 827.980469 375.734375 828.34375 373.746094 828.34375 371.300781 L 828.34375 345.875 C 828.171875 340.546875 829.820312 336.320312 833.265625 333.207031 C 836.714844 330.089844 841.691406 328.050781 848.152344 327.082031 L 848.152344 326.058594 C 835.28125 324.078125 828.671875 317.78125 828.335938 307.183594 L 828.335938 281.757812 C 828.335938 279.324219 827.964844 277.332031 827.234375 275.796875 C 826.601562 274.308594 825.609375 273.121094 824.253906 272.234375 C 822.863281 271.265625 821.332031 270.640625 819.65625 270.363281 C 817.632812 270.003906 815.589844 269.804688 813.535156 269.765625 L 813.535156 250.65625 C 820.960938 250.65625 827.144531 251.109375 831.90625 251.953125 C 836.667969 252.796875 840.527344 254.285156 843.3125 256.203125 C 846.152344 258.144531 848.109375 260.511719 849.183594 263.523438 C 850.261719 266.46875 850.804688 270.039062 850.804688 274.238281 L 850.804688 301.277344 C 850.738281 303.996094 851.171875 306.328125 852.082031 308.246094 C 853.019531 310.226562 854.410156 311.8125 856.246094 313.007812 C 858.191406 314.199219 860.414062 315.082031 863.136719 315.644531 C 865.921875 316.164062 869.058594 316.410156 872.578125 316.410156 L 872.578125 336.730469 C 865.488281 336.730469 860.070312 337.894531 856.332031 340.214844 C 852.636719 342.546875 850.804688 346.453125 850.804688 351.875 L 850.804688 378.660156 " fill-opacity="1" fill-rule="nonzero"/></g><path fill="#000000" d="M 472.441406 557.230469 C 470.5 557.230469 468.8125 557.101562 467.375 556.828125 C 465.929688 556.601562 464.679688 556.277344 463.617188 555.855469 L 463.617188 546.738281 C 464.984375 547.09375 466.371094 547.359375 467.777344 547.53125 C 469.363281 547.769531 470.957031 547.882812 472.558594 547.875 C 473.988281 547.871094 475.394531 547.683594 476.773438 547.304688 C 478.21875 546.96875 479.507812 546.324219 480.648438 545.371094 C 481.828125 544.417969 482.773438 543.101562 483.5 541.445312 C 484.226562 539.785156 484.582031 537.648438 484.582031 535.070312 L 484.582031 451.835938 L 495.230469 451.835938 L 495.230469 533.9375 C 495.230469 537.921875 494.660156 541.371094 493.519531 544.300781 C 492.523438 547.074219 490.964844 549.484375 488.84375 551.53125 C 486.792969 553.523438 484.402344 554.945312 481.671875 555.800781 C 478.898438 556.75 475.113281 557.222656 471.738281 557.222656 M 548.175781 526.421875 L 547.722656 526.421875 C 546.582031 528 545.328125 529.480469 543.964844 530.867188 C 541.40625 533.335938 538.386719 534.933594 534.902344 535.652344 C 533.074219 536.042969 530.976562 536.222656 528.578125 536.222656 C 525.960938 536.222656 523.550781 535.835938 521.347656 535.082031 C 519.160156 534.417969 517.242188 533.296875 515.589844 531.714844 C 513.996094 530.160156 512.738281 528.214844 511.832031 525.910156 C 510.925781 523.558594 510.535156 520.726562 510.535156 517.597656 C 510.535156 511.378906 512.71875 506.585938 517.015625 503.25 C 521.421875 499.90625 528.035156 498.085938 537.066406 497.78125 L 547.546875 497.382812 L 547.546875 493.457031 C 547.546875 490.910156 547.261719 488.792969 546.691406 487.082031 C 546.160156 485.371094 545.363281 484.003906 544.292969 482.980469 C 543.207031 481.871094 541.914062 481.113281 540.417969 480.699219 C 538.703125 480.21875 536.957031 479.992188 535.175781 480.019531 C 532.160156 479.996094 529.21875 480.449219 526.347656 481.382812 C 523.664062 482.285156 521.0625 483.386719 518.546875 484.683594 L 514.902344 476.886719 C 517.714844 475.371094 520.847656 474.074219 524.300781 473.011719 C 527.847656 471.933594 531.476562 471.402344 535.183594 471.417969 C 539.058594 471.417969 542.394531 471.820312 545.207031 472.617188 C 548.058594 473.375 550.390625 474.613281 552.207031 476.308594 C 554.148438 478.09375 555.535156 480.238281 556.367188 482.742188 C 557.289062 485.351562 557.664062 488.53125 557.664062 492.25 L 557.664062 535.003906 L 550.316406 535.003906 Z M 531.324219 527.816406 C 533.535156 527.835938 535.679688 527.472656 537.761719 526.734375 C 539.710938 526.039062 541.417969 524.960938 542.882812 523.492188 C 544.328125 522.015625 545.449219 520.171875 546.25 517.972656 C 547.09375 515.734375 547.5 513.117188 547.5 510.117188 L 547.5 504.480469 L 539.355469 504.882812 C 535.941406 505.03125 533.070312 505.414062 530.757812 506.023438 C 528.441406 506.632812 526.574219 507.488281 525.183594 508.589844 C 523.886719 509.652344 522.828125 510.957031 522.222656 512.511719 C 521.582031 514.183594 521.277344 515.910156 521.308594 517.695312 C 521.308594 521.195312 522.214844 523.753906 524.042969 525.386719 C 525.871094 527.019531 528.332031 527.832031 531.332031 527.832031 M 566.4375 472.566406 L 577.144531 472.566406 L 588.550781 507.351562 L 590.042969 512.191406 L 591.753906 518.226562 L 593.289062 524.03125 L 594.261719 528.191406 L 594.660156 528.191406 L 595.632812 524.03125 L 597.167969 518.226562 L 598.878906 512.191406 L 600.371094 507.351562 L 611.710938 472.566406 L 622.25 472.566406 L 600.890625 535.078125 L 587.734375 535.078125 Z M 664.671875 526.421875 L 664.21875 526.421875 C 663.078125 528 661.824219 529.480469 660.460938 530.867188 C 657.902344 533.335938 654.882812 534.933594 651.398438 535.652344 C 649.574219 536.042969 647.472656 536.222656 645.074219 536.222656 C 642.457031 536.222656 640.046875 535.835938 637.84375 535.082031 C 635.65625 534.417969 633.738281 533.296875 632.085938 531.714844 C 630.492188 530.160156 629.234375 528.214844 628.328125 525.910156 C 627.421875 523.558594 627.03125 520.726562 627.03125 517.597656 C 627.03125 511.378906 629.214844 506.585938 633.511719 503.25 C 637.921875 499.90625 644.53125 498.085938 653.566406 497.78125 L 664.042969 497.382812 L 664.042969 493.457031 C 664.042969 490.910156 663.757812 488.792969 663.1875 487.082031 C 662.65625 485.371094 661.859375 484.003906 660.789062 482.980469 C 659.703125 481.871094 658.414062 481.113281 656.914062 480.699219 C 655.199219 480.21875 653.453125 479.992188 651.671875 480.019531 C 648.65625 479.996094 645.714844 480.449219 642.84375 481.382812 C 640.160156 482.285156 637.5625 483.386719 635.042969 484.683594 L 631.402344 476.886719 C 634.214844 475.371094 637.34375 474.074219 640.796875 473.011719 C 644.347656 471.933594 647.976562 471.402344 651.683594 471.417969 C 655.5625 471.417969 658.898438 471.820312 661.710938 472.617188 C 664.5625 473.375 666.894531 474.613281 668.710938 476.308594 C 670.652344 478.09375 672.039062 480.238281 672.871094 482.742188 C 673.789062 485.351562 674.167969 488.53125 674.167969 492.25 L 674.167969 535.003906 L 666.714844 535.003906 Z M 647.824219 527.847656 C 650.03125 527.867188 652.175781 527.507812 654.257812 526.765625 C 656.207031 526.070312 657.914062 524.992188 659.378906 523.527344 C 660.824219 522.035156 661.945312 520.203125 662.746094 518.007812 C 663.589844 515.765625 664 513.148438 664 510.148438 L 664 504.511719 L 655.851562 504.914062 C 652.4375 505.0625 649.566406 505.445312 647.253906 506.054688 C 644.9375 506.664062 643.074219 507.519531 641.679688 508.621094 C 640.382812 509.683594 639.328125 510.992188 638.71875 512.546875 C 638.078125 514.214844 637.773438 515.941406 637.804688 517.726562 C 637.804688 521.226562 638.710938 523.785156 640.539062 525.417969 C 642.398438 527.050781 644.828125 527.867188 647.828125 527.867188 M 738.125 512.816406 C 738.125 516.496094 737.457031 519.800781 736.128906 522.730469 C 734.847656 525.617188 732.988281 528.066406 730.546875 530.074219 C 728.117188 532.019531 725.15625 533.625 721.671875 534.6875 C 718.171875 535.710938 714.242188 536.222656 709.875 536.222656 C 705.894531 536.242188 701.945312 535.902344 698.027344 535.199219 C 694.378906 534.550781 691.328125 533.578125 688.859375 532.296875 L 688.859375 522.164062 L 693.246094 523.980469 L 698.429688 525.515625 L 704.070312 526.65625 C 705.976562 526.917969 707.894531 527.050781 709.824219 527.054688 C 715.894531 527.054688 720.386719 525.917969 723.265625 523.644531 C 726.179688 521.363281 727.652344 518.105469 727.652344 513.847656 C 727.6875 512.011719 727.402344 510.230469 726.796875 508.496094 C 726.265625 506.980469 725.304688 505.59375 723.894531 504.339844 C 722.597656 503.042969 720.683594 501.746094 718.363281 500.644531 C 715.519531 499.160156 712.59375 497.851562 709.589844 496.71875 C 706.519531 495.542969 703.574219 494.101562 700.761719 492.394531 C 698.300781 490.800781 696.246094 489.011719 694.605469 487.042969 C 693.011719 485.066406 691.820312 482.832031 691.015625 480.324219 C 690.257812 477.816406 689.875 474.972656 689.875 471.785156 C 689.875 468.445312 690.484375 465.472656 691.691406 462.847656 C 692.882812 460.242188 694.589844 458.042969 696.816406 456.238281 C 699.164062 454.335938 701.78125 452.949219 704.679688 452.082031 C 707.757812 451.136719 711.132812 450.65625 714.8125 450.65625 C 719.332031 450.65625 723.394531 451.089844 726.996094 451.964844 C 730.605469 452.808594 733.816406 453.882812 736.621094 455.203125 L 732.734375 464.078125 C 730.269531 462.976562 727.457031 462.03125 724.308594 461.226562 C 721.136719 460.382812 717.90625 459.96875 714.625 459.976562 C 709.992188 459.976562 706.394531 461.058594 703.867188 463.21875 C 703.234375 463.742188 702.671875 464.332031 702.175781 464.988281 C 701.675781 465.644531 701.261719 466.34375 700.921875 467.09375 C 700.585938 467.84375 700.339844 468.625 700.179688 469.429688 C 700.019531 470.234375 699.953125 471.050781 699.980469 471.871094 C 699.980469 474.035156 700.265625 475.914062 700.835938 477.507812 C 701.453125 479.148438 702.402344 480.570312 703.679688 481.777344 C 705.007812 483.027344 706.757812 484.222656 708.863281 485.363281 C 711.066406 486.464844 713.761719 487.644531 716.953125 488.894531 C 720.0625 490.097656 723.082031 491.5 726.003906 493.105469 C 728.4375 494.40625 730.625 496.039062 732.558594 498.003906 C 734.320312 499.828125 735.628906 501.9375 736.484375 504.324219 C 737.390625 506.722656 737.878906 509.648438 737.878906 512.914062 M 776.464844 536.214844 C 772.628906 536.214844 769.039062 535.570312 765.707031 534.449219 C 762.347656 533.242188 759.441406 531.339844 756.988281 528.746094 C 754.527344 526.128906 752.582031 522.808594 751.183594 518.785156 C 749.777344 514.722656 749.078125 509.84375 749.078125 504.144531 C 749.078125 498.183594 749.726562 493.132812 751.242188 489 C 752.6875 484.820312 754.65625 481.445312 757.164062 478.867188 C 759.671875 476.265625 762.632812 474.363281 766.042969 473.167969 C 769.414062 471.980469 773.042969 471.398438 776.929688 471.398438 C 779.851562 471.394531 782.738281 471.714844 785.589844 472.363281 C 788.058594 472.878906 790.433594 473.675781 792.710938 474.753906 L 789.632812 483.523438 C 788.757812 483.136719 787.792969 482.785156 786.730469 482.441406 C 785.667969 482.0625 784.585938 481.738281 783.488281 481.472656 C 782.347656 481.167969 781.222656 480.941406 780.121094 480.792969 C 779.082031 480.609375 778.039062 480.511719 776.988281 480.507812 C 771.027344 480.507812 766.621094 482.421875 763.945312 486.257812 C 761.207031 490.054688 759.839844 495.976562 759.839844 504.019531 C 759.839844 512.027344 761.136719 517.898438 763.945312 521.613281 C 766.71875 525.292969 770.910156 527.132812 776.527344 527.132812 C 779.347656 527.167969 782.117188 526.828125 784.84375 526.109375 C 787.1875 525.449219 789.464844 524.613281 791.679688 523.605469 L 791.679688 532.828125 C 789.585938 533.953125 787.382812 534.789062 785.070312 535.335938 C 782.757812 535.90625 779.757812 536.191406 776.375 536.191406 M 833.210938 471.425781 L 836.902344 471.59375 C 838.089844 471.648438 839.265625 471.78125 840.433594 471.996094 L 839.140625 481.5625 L 835.898438 481.109375 C 834.796875 480.953125 833.761719 480.882812 832.769531 480.882812 C 830.371094 480.882812 828.191406 481.375 826.289062 482.359375 C 824.253906 483.347656 822.546875 484.734375 821.160156 486.519531 C 819.65625 488.46875 818.574219 490.632812 817.921875 493.007812 C 817.128906 495.742188 816.746094 498.53125 816.78125 501.378906 L 816.78125 535.082031 L 806.410156 535.082031 L 806.410156 472.570312 L 814.835938 472.570312 L 816.085938 484.015625 L 816.539062 484.015625 L 819.5625 479.289062 C 820.617188 477.816406 821.832031 476.488281 823.210938 475.304688 C 824.574219 474.125 826.09375 473.195312 827.765625 472.511719 C 829.652344 471.761719 831.609375 471.402344 833.636719 471.429688 M 862.476562 535.074219 L 852.105469 535.074219 L 852.105469 472.5625 L 862.476562 472.5625 L 862.476562 535.074219 M 853.015625 450.703125 C 853.613281 450.183594 854.289062 449.792969 855.035156 449.527344 C 855.78125 449.265625 856.550781 449.144531 857.34375 449.167969 C 858.144531 449.15625 858.921875 449.289062 859.675781 449.566406 C 860.417969 449.78125 861.066406 450.164062 861.613281 450.707031 C 862.214844 451.285156 862.652344 451.96875 862.921875 452.753906 C 863.265625 453.550781 863.441406 454.523438 863.441406 455.65625 C 863.441406 457.859375 862.832031 459.511719 861.625 460.613281 C 860.449219 461.675781 859.035156 462.207031 857.347656 462.207031 C 855.664062 462.207031 854.15625 461.410156 852.976562 460.339844 C 851.835938 459.277344 851.289062 457.621094 851.304688 455.519531 C 851.308594 453.382812 851.949219 451.726562 853.019531 450.703125 Z M 909.886719 536.210938 C 907.824219 536.234375 905.792969 535.988281 903.796875 535.472656 C 901.980469 534.980469 900.324219 534.332031 898.839844 533.527344 C 897.429688 532.71875 896.136719 531.753906 894.964844 530.625 C 893.882812 529.546875 892.894531 528.390625 892 527.152344 L 891.320312 527.152344 L 891.664062 530.847656 L 891.890625 533.921875 L 892.007812 536.371094 L 892.007812 563.074219 L 881.640625 563.074219 L 881.640625 472.5625 L 890.0625 472.5625 L 891.554688 480.984375 L 892.007812 480.984375 C 892.878906 479.660156 893.867188 478.425781 894.96875 477.285156 C 896.09375 476.089844 897.363281 475.085938 898.785156 474.269531 C 900.347656 473.363281 902 472.679688 903.746094 472.222656 C 905.757812 471.664062 907.808594 471.398438 909.894531 471.425781 C 913.460938 471.425781 916.710938 472.105469 919.636719 473.472656 C 922.558594 474.839844 925.046875 476.886719 927.089844 479.625 C 929.175781 482.320312 930.78125 485.683594 931.929688 489.703125 C 933.078125 493.726562 933.640625 498.398438 933.640625 503.710938 C 933.640625 509.0625 933.070312 513.769531 931.929688 517.832031 C 930.789062 521.847656 929.175781 525.234375 927.089844 527.964844 C 925.039062 530.695312 922.550781 532.757812 919.636719 534.167969 C 916.71875 535.464844 912.746094 536.214844 909.175781 536.214844 M 907.898438 480.019531 C 905.015625 480.019531 902.566406 480.453125 900.550781 481.328125 C 898.574219 482.203125 896.960938 483.53125 895.707031 485.3125 C 894.457031 487.09375 893.582031 489.316406 892.972656 491.972656 C 892.355469 495.074219 892.035156 498.203125 892.007812 501.363281 L 892.007812 503.695312 C 891.976562 507.132812 892.222656 510.550781 892.746094 513.945312 C 893.277344 516.90625 894.152344 519.414062 895.363281 521.460938 C 896.585938 523.460938 898.238281 524.996094 900.324219 526.070312 C 902.371094 527.09375 904.9375 527.605469 908.015625 527.605469 C 913.199219 527.605469 916.894531 525.535156 919.292969 521.402344 C 921.722656 517.253906 922.933594 511.320312 922.941406 503.585938 C 922.941406 495.683594 921.722656 489.789062 919.296875 485.882812 C 916.875 481.976562 913.109375 480.019531 907.90625 480.019531 M 968.253906 527.730469 C 968.933594 527.730469 969.699219 527.664062 970.535156 527.613281 L 973.042969 527.328125 L 975.207031 526.925781 L 976.742188 526.523438 L 976.742188 534.382812 C 976.25 534.609375 975.621094 534.835938 974.796875 535.0625 C 973.972656 535.304688 973.136719 535.492188 972.289062 535.632812 C 971.382812 535.828125 970.429688 535.957031 969.4375 536.035156 C 968.476562 536.148438 967.507812 536.203125 966.535156 536.203125 C 964.183594 536.203125 962 535.898438 960.054688 535.296875 C 958.042969 534.695312 956.292969 533.652344 954.804688 532.167969 C 953.359375 530.675781 952.226562 528.695312 951.390625 526.1875 C 950.546875 523.644531 950.140625 520.457031 950.140625 516.621094 L 950.140625 480.34375 L 941.3125 480.34375 L 941.3125 475.730469 L 950.140625 471.289062 L 954.585938 458.191406 L 960.566406 458.191406 L 960.566406 472.539062 L 976.289062 472.539062 L 976.289062 480.339844 L 960.566406 480.339844 L 960.566406 516.613281 C 960.566406 520.292969 961.214844 523.066406 962.328125 524.925781 C 963.445312 526.785156 965.519531 527.710938 968.253906 527.710938 " fill-opacity="1" fill-rule="nonzero"/><g clip-path="url(#53cd63460a)"><path stroke-linecap="butt" transform="matrix(6.480673, 0, 0, 6.477897, 335.804286, 206.128574)" fill="none" stroke-linejoin="miter" d="M 21.083785 54.199979 C 20.784217 54.199979 20.523827 54.180079 20.302014 54.137868 C 20.078995 54.102894 19.886114 54.052844 19.722165 53.987718 L 19.722165 52.580288 C 19.933128 52.635162 20.147106 52.676167 20.364097 52.7027 C 20.608815 52.739484 20.854739 52.756971 21.101868 52.755765 C 21.322476 52.755162 21.539467 52.726217 21.752239 52.667725 C 21.975258 52.615866 22.174167 52.516369 22.350171 52.369234 C 22.532202 52.222099 22.678069 52.018884 22.790181 51.763207 C 22.902293 51.506927 22.957144 51.177079 22.957144 50.779091 L 22.957144 37.930111 L 24.600251 37.930111 L 24.600251 50.604218 C 24.600251 51.21929 24.512249 51.75175 24.336244 52.204009 C 24.182542 52.632147 23.942044 53.004206 23.614748 53.320184 C 23.298303 53.62772 22.929417 53.847217 22.508092 53.979276 C 22.080137 54.125808 21.496069 54.198773 20.97529 54.198773 M 32.769975 49.444023 L 32.700055 49.444023 C 32.524051 49.68764 32.330567 49.916181 32.120206 50.130251 C 31.725403 50.511354 31.259474 50.757986 30.721818 50.86894 C 30.439729 50.929241 30.11605 50.95698 29.745959 50.95698 C 29.342114 50.95698 28.970215 50.897282 28.630262 50.7809 C 28.29272 50.678388 27.996768 50.505324 27.741803 50.261104 C 27.49588 50.021105 27.301793 49.720805 27.161954 49.365028 C 27.022115 49.002015 26.96184 48.564831 26.96184 48.081819 C 26.96184 47.121823 27.298779 46.381928 27.961808 45.866955 C 28.641714 45.350777 29.662177 45.069774 31.055743 45.022739 L 32.672932 44.961231 L 32.672932 44.355204 C 32.672932 43.96204 32.62893 43.635208 32.540928 43.371089 C 32.458954 43.106969 32.335992 42.895915 32.170838 42.737926 C 32.003272 42.566671 31.803761 42.449686 31.572906 42.385767 C 31.308297 42.311596 31.038866 42.276622 30.76401 42.280843 C 30.298685 42.277225 29.844811 42.347174 29.401787 42.491294 C 28.987695 42.63059 28.586261 42.800639 28.198088 43.000839 L 27.635718 41.797227 C 28.069701 41.563259 28.55311 41.363059 29.085944 41.199039 C 29.633244 41.032608 30.193203 40.950598 30.765216 40.95301 C 31.363148 40.95301 31.877899 41.015121 32.311882 41.138135 C 32.751892 41.255119 33.111736 41.446274 33.392017 41.707981 C 33.691585 41.983558 33.905563 42.314612 34.033949 42.701142 C 34.176199 43.103954 34.234064 43.594806 34.234064 44.168874 L 34.234064 50.76884 L 33.100284 50.76884 Z M 30.169695 49.659298 C 30.510854 49.662313 30.841766 49.606233 31.163033 49.492264 C 31.463808 49.384928 31.727211 49.218496 31.953244 48.991764 C 32.176262 48.763825 32.349253 48.479204 32.472817 48.139708 C 32.603012 47.794182 32.665698 47.390164 32.665698 46.927051 L 32.665698 46.056904 L 31.408957 46.119014 C 30.88215 46.141929 30.439126 46.201024 30.082296 46.295094 C 29.724863 46.389164 29.436747 46.521223 29.222166 46.691273 C 29.022052 46.855292 28.858706 47.056698 28.765279 47.296697 C 28.666427 47.554786 28.619413 47.821317 28.624235 48.096894 C 28.624235 48.637193 28.764073 49.032166 29.046162 49.284225 C 29.328251 49.536284 29.707986 49.66171 30.170901 49.66171 M 35.587849 41.130296 L 37.239997 41.130296 L 39.000038 46.500118 L 39.23029 47.24725 L 39.494296 48.178904 L 39.731178 49.074979 L 39.881264 49.717187 L 39.942744 49.717187 L 40.09283 49.074979 L 40.329712 48.178904 L 40.593719 47.24725 L 40.82397 46.500118 L 42.573765 41.130296 L 44.199994 41.130296 L 40.904137 50.780297 L 38.874062 50.780297 Z M 50.7459 49.444023 L 50.67598 49.444023 C 50.499976 49.68764 50.306492 49.916181 50.096131 50.130251 C 49.701328 50.511354 49.235399 50.757986 48.697743 50.86894 C 48.416257 50.929241 48.091975 50.95698 47.721884 50.95698 C 47.318039 50.95698 46.94614 50.897282 46.606187 50.7809 C 46.268645 50.678388 45.972693 50.505324 45.717728 50.261104 C 45.471805 50.021105 45.277718 49.720805 45.137879 49.365028 C 44.99804 49.002015 44.937765 48.564831 44.937765 48.081819 C 44.937765 47.121823 45.274704 46.381928 45.937733 45.866955 C 46.618242 45.350777 47.638102 45.069774 49.032271 45.022739 L 50.648857 44.961231 L 50.648857 44.355204 C 50.648857 43.96204 50.604855 43.635208 50.516853 43.371089 C 50.434879 43.106969 50.311917 42.895915 50.146763 42.737926 C 49.979197 42.566671 49.780288 42.449686 49.548831 42.385767 C 49.284222 42.311596 49.014791 42.276622 48.739935 42.280843 C 48.274609 42.277225 47.820736 42.347174 47.377712 42.491294 C 46.96362 42.63059 46.562789 42.800639 46.174013 43.000839 L 45.612246 41.797227 C 46.046229 41.563259 46.529035 41.363059 47.061869 41.199039 C 47.609772 41.032608 48.16973 40.950598 48.741744 40.95301 C 49.340278 40.95301 49.85503 41.015121 50.289013 41.138135 C 50.729023 41.255119 51.088867 41.446274 51.369147 41.707981 C 51.668716 41.983558 51.882693 42.314612 52.01108 42.701142 C 52.152727 43.103954 52.211194 43.594806 52.211194 44.168874 L 52.211194 50.76884 L 51.06114 50.76884 Z M 48.146223 49.664122 C 48.486779 49.667137 48.817691 49.61166 49.138958 49.497088 C 49.439732 49.389752 49.703136 49.22332 49.929169 48.997191 C 50.152187 48.76684 50.325178 48.484028 50.448742 48.145135 C 50.578937 47.799006 50.642226 47.394988 50.642226 46.931875 L 50.642226 46.061728 L 49.384882 46.123839 C 48.858075 46.146753 48.415051 46.205848 48.058221 46.299918 C 47.700788 46.393988 47.413274 46.526048 47.198091 46.696097 C 46.997977 46.860116 46.835234 47.062125 46.741204 47.302124 C 46.642352 47.55961 46.595338 47.826142 46.60016 48.101718 C 46.60016 48.642017 46.739998 49.03699 47.022087 49.289049 C 47.308998 49.541108 47.683911 49.667137 48.146826 49.667137 M 62.080081 47.343732 C 62.080081 47.911769 61.97701 48.421917 61.772074 48.874176 C 61.574371 49.319802 61.28746 49.697891 60.910739 50.007839 C 60.535826 50.308139 60.078939 50.555977 59.541283 50.719996 C 59.001215 50.877985 58.394845 50.95698 57.720966 50.95698 C 57.10676 50.959995 56.497376 50.907533 55.892814 50.798991 C 55.329842 50.698891 54.859091 50.548741 54.478151 50.350953 L 54.478151 48.78674 L 55.155044 49.06714 L 55.954898 49.304124 L 56.825274 49.480204 C 57.119418 49.520605 57.41537 49.541108 57.71313 49.541711 C 58.64981 49.541711 59.342977 49.366234 59.787206 49.015281 C 60.23686 48.663122 60.464099 48.16021 60.464099 47.502927 C 60.469523 47.219511 60.425522 46.944538 60.332095 46.676801 C 60.250121 46.442832 60.101844 46.228763 59.884249 46.035196 C 59.684135 45.834996 59.388786 45.634796 59.03075 45.464746 C 58.591945 45.235602 58.140483 45.033593 57.676965 44.858719 C 57.203201 44.677213 56.748724 44.454701 56.314742 44.191185 C 55.935007 43.945156 55.617958 43.668977 55.364802 43.365059 C 55.118878 43.059934 54.935038 42.715012 54.810871 42.327878 C 54.693937 41.940744 54.634867 41.501751 54.634867 41.009694 C 54.634867 40.494118 54.728897 40.035226 54.915148 39.630002 C 55.098987 39.227793 55.362391 38.888297 55.70596 38.609706 C 56.068215 38.316039 56.47206 38.101969 56.919304 37.968101 C 57.394274 37.822172 57.915053 37.748001 58.482847 37.748001 C 59.180233 37.748001 59.807097 37.814936 60.362836 37.95001 C 60.91978 38.080261 61.415244 38.246089 61.848021 38.449907 L 61.248281 39.819951 C 60.867944 39.649901 60.433961 39.503972 59.948141 39.379752 C 59.458705 39.249501 58.960228 39.185582 58.453915 39.186788 C 57.739049 39.186788 57.183913 39.353822 56.793931 39.687288 C 56.696285 39.768092 56.609488 39.859147 56.532939 39.960453 C 56.455786 40.061759 56.391894 40.169698 56.339455 40.285476 C 56.287618 40.401254 56.249644 40.521857 56.224931 40.646077 C 56.200219 40.770298 56.189972 40.896327 56.194191 41.02296 C 56.194191 41.357028 56.238192 41.647077 56.326194 41.893106 C 56.421429 42.146371 56.567898 42.365868 56.764999 42.552198 C 56.969935 42.745162 57.239969 42.929684 57.564853 43.105763 C 57.904806 43.275813 58.320706 43.457922 58.813156 43.650886 C 59.292948 43.836614 59.758877 44.053095 60.209736 44.300933 C 60.585252 44.501736 60.922794 44.753795 61.221157 45.05711 C 61.492999 45.338717 61.694922 45.664343 61.826925 46.032784 C 61.966764 46.403033 62.042108 46.854689 62.042108 47.358807 M 67.996109 50.955774 C 67.404205 50.955774 66.850274 50.856277 66.336126 50.683213 C 65.817757 50.496882 65.369309 50.203215 64.990779 49.802815 C 64.611044 49.398797 64.310873 48.886237 64.095087 48.265134 C 63.878096 47.638002 63.770203 46.88484 63.770203 46.005045 C 63.770203 45.084849 63.87026 44.305154 64.104128 43.667168 C 64.327147 43.021945 64.630935 42.500942 65.017903 42.102954 C 65.404871 41.701348 65.861758 41.407681 66.387962 41.22316 C 66.908139 41.039844 67.468097 40.949995 68.067837 40.949995 C 68.518697 40.949392 68.964132 40.998839 69.404142 41.098939 C 69.785082 41.178537 70.151557 41.301551 70.502962 41.467983 L 70.027992 42.821745 C 69.892975 42.762046 69.744095 42.707775 69.580146 42.65471 C 69.416197 42.596218 69.249234 42.546168 69.079861 42.505163 C 68.903856 42.458128 68.730263 42.423154 68.560287 42.400239 C 68.399954 42.371898 68.239019 42.356822 68.076878 42.356219 C 67.157076 42.356219 66.47717 42.651695 66.064284 43.243853 C 65.641753 43.829981 65.430789 44.744147 65.430789 45.985749 C 65.430789 47.221923 65.630904 48.128251 66.064284 48.701715 C 66.492239 49.269752 67.138994 49.553771 68.005753 49.553771 C 68.440942 49.559198 68.868294 49.506736 69.289016 49.395782 C 69.650668 49.293873 70.002074 49.164828 70.343835 49.009251 L 70.343835 50.432963 C 70.020759 50.60663 69.680806 50.735675 69.323976 50.820096 C 68.967146 50.908136 68.504231 50.952156 67.982246 50.952156 M 76.752313 40.954216 L 77.321915 40.980146 C 77.505152 40.988588 77.686581 41.009091 77.866805 41.042256 L 77.667293 42.519033 L 77.167008 42.449083 C 76.997031 42.424963 76.837301 42.414109 76.684202 42.414109 C 76.314111 42.414109 75.977774 42.490088 75.684233 42.642047 C 75.370199 42.794609 75.106795 43.008678 74.892818 43.284255 C 74.660758 43.585158 74.493795 43.919227 74.393135 44.285858 C 74.270776 44.707966 74.211706 45.138517 74.217131 45.578113 L 74.217131 50.7809 L 72.61682 50.7809 L 72.61682 41.130899 L 73.916959 41.130899 L 74.109841 42.897724 L 74.17976 42.897724 L 74.646291 42.16808 C 74.809035 41.940744 74.996491 41.73572 75.209263 41.553007 C 75.419624 41.370898 75.654096 41.227381 75.912074 41.121854 C 76.203204 41.006075 76.505184 40.950598 76.818013 40.954819 M 81.268144 50.779694 L 79.667833 50.779694 L 79.667833 41.129693 L 81.268144 41.129693 L 81.268144 50.779694 M 79.808275 37.755238 C 79.900496 37.675037 80.004772 37.614736 80.119898 37.573731 C 80.235024 37.533329 80.353767 37.514636 80.476126 37.518254 C 80.59969 37.516445 80.719638 37.536947 80.83597 37.579761 C 80.950493 37.612927 81.05055 37.672022 81.134936 37.755841 C 81.22776 37.845086 81.295268 37.950613 81.336858 38.071819 C 81.3899 38.194833 81.417024 38.344983 81.417024 38.519857 C 81.417024 38.859956 81.322995 39.11503 81.136744 39.285079 C 80.955315 39.449098 80.737118 39.531108 80.476728 39.531108 C 80.216942 39.531108 79.984279 39.408094 79.802247 39.242868 C 79.626243 39.078849 79.541857 38.823172 79.544268 38.498751 C 79.544871 38.168904 79.643723 37.913227 79.808877 37.755238 Z M 88.583766 50.955171 C 88.265512 50.958789 87.95208 50.920799 87.644073 50.841202 C 87.363793 50.765222 87.108225 50.665122 86.879179 50.540902 C 86.661585 50.416078 86.462073 50.267134 86.281247 50.092864 C 86.114284 49.926432 85.961788 49.747941 85.823757 49.556786 L 85.718878 49.556786 L 85.77192 50.127235 L 85.80688 50.601806 L 85.824962 50.979894 L 85.824962 55.102085 L 84.225254 55.102085 L 84.225254 41.129693 L 85.524791 41.129693 L 85.755043 42.429787 L 85.824962 42.429787 C 85.959376 42.225366 86.111873 42.034814 86.28185 41.858734 C 86.455443 41.674213 86.651338 41.519239 86.87074 41.393209 C 87.111842 41.25331 87.366806 41.147783 87.636237 41.077231 C 87.946656 40.991 88.263101 40.949995 88.584972 40.954216 C 89.135286 40.954216 89.636777 41.05914 90.08824 41.270195 C 90.539099 41.481249 90.923054 41.797227 91.238294 42.219939 C 91.560164 42.636017 91.807896 43.15521 91.985106 43.77571 C 92.162315 44.396812 92.249112 45.118014 92.249112 45.938111 C 92.249112 46.764237 92.16111 47.490867 91.985106 48.117999 C 91.809102 48.737896 91.560164 49.260707 91.238294 49.682213 C 90.921848 50.103718 90.537894 50.422108 90.08824 50.639796 C 89.637983 50.839996 89.024982 50.955774 88.474065 50.955774 M 88.276965 42.280843 C 87.832132 42.280843 87.454206 42.347777 87.143185 42.482852 C 86.838191 42.617927 86.589254 42.822951 86.39577 43.097924 C 86.202889 43.372898 86.067872 43.716012 85.973843 44.12606 C 85.878607 44.604851 85.829182 45.087864 85.824962 45.575701 L 85.824962 45.935699 C 85.82014 46.466349 85.858114 46.993985 85.938883 47.518002 C 86.020857 47.975085 86.155874 48.362219 86.342728 48.678198 C 86.53139 48.98694 86.786355 49.223923 87.108225 49.389752 C 87.424068 49.547741 87.820077 49.626735 88.295047 49.626735 C 89.094901 49.626735 89.665107 49.307139 90.035197 48.669152 C 90.41011 48.028754 90.596964 47.112778 90.598169 45.918814 C 90.598169 44.698921 90.41011 43.788976 90.0358 43.185964 C 89.662093 42.582952 89.081038 42.280843 88.27817 42.280843 M 97.590113 49.646032 C 97.694992 49.646032 97.813132 49.635781 97.942121 49.627941 L 98.329089 49.583922 L 98.663014 49.521811 L 98.899897 49.459701 L 98.899897 50.672961 C 98.82395 50.707936 98.726906 50.742911 98.599725 50.777885 C 98.472544 50.815272 98.343555 50.844217 98.212757 50.865925 C 98.072919 50.896076 97.925847 50.915975 97.772747 50.928035 C 97.62447 50.945523 97.474987 50.953965 97.324901 50.953965 C 96.962043 50.953965 96.625104 50.90693 96.324933 50.814066 C 96.014514 50.721202 95.744481 50.560198 95.514832 50.331054 C 95.291813 50.100703 95.117014 49.794976 94.988025 49.407842 C 94.85783 49.015281 94.795144 48.523223 94.795144 47.931066 L 94.795144 42.330893 L 93.43292 42.330893 L 93.43292 41.618736 L 94.795144 40.933111 L 95.481077 38.911212 L 96.403893 38.911212 L 96.403893 41.126075 L 98.829977 41.126075 L 98.829977 42.33029 L 96.403893 42.33029 L 96.403893 47.92986 C 96.403893 48.497897 96.503951 48.926035 96.675735 49.213069 C 96.848123 49.500103 97.168185 49.643017 97.590113 49.643017 " stroke="#000000" stroke-width="1" stroke-opacity="1" stroke-miterlimit="4"/></g></svg>